# xmcd
#
# Track frame offsets:
#	150
#	29255
#	42735
#	55577
#	75797
#	87112
#	99245
#	112515
#	129095
#	141410
#	155359
#	174970
#	195320
#	223037
#	235380
#	249645
#	265765
#
# Disc length: 3726
#
# Revision: 1
# Processed by: cddbd v1.5.1PL0 Copyright (c) Steve Scherf et al.
# Submitted via: EasyCDDAExtractor 5.0.5.1
# Normalized: r0:TDELIM( - )
#
DISCID=cc0e8c11
DTITLE=Various Artist - Ultime Slows - CD1
DYEAR=2002
DGENRE=Other
TTITLE0=Scorpions - Still Loving You
TTITLE1=Ben E King - Stand By Me
TTITLE2=Percy Sledge - When A Man Loves A Woman
TTITLE3=The Animals - The House Of The Rising Sun
TTITLE4=Ricky Nelson - Teenage Idol
TTITLE5=Jimmy Cliff - Many Rivers To Cross
TTITLE6=The Korgis - Everybody's Got To Learn Sometimes
TTITLE7=Adrian Gurvitz - Classic
TTITLE8=Rare Bird - Sympathy
TTITLE9=Aaron Neville - Tell It Like It Is
TTITLE10=Al Jarreau - Lean On Me
TTITLE11=Neneh Cherry - Woman
TTITLE12=Roxy Music - Jealous Guy
TTITLE13=Brook Benton - Rainy Night In Georgia
TTITLE14=Shirley Bassey - Moonraker
TTITLE15=Gene Pitney - Something's Gotten Hold Of My Head
TTITLE16=Sammy Davis Jr - What The World Needs Now Is Love
EXTD=
EXTT0=
EXTT1=
EXTT2=
EXTT3=
EXTT4=
EXTT5=
EXTT6=
EXTT7=
EXTT8=
EXTT9=
EXTT10=
EXTT11=
EXTT12=
EXTT13=
EXTT14=
EXTT15=
EXTT16=
PLAYORDER=
